<?xml version="1.0" standalone="no"?>
<!DOCTYPE svg PUBLIC "-//W3C//DTD SVG 20010904//EN"
 "http://www.w3.org/TR/2001/REC-SVG-20010904/DTD/svg10.dtd">
<svg version="1.0" xmlns="http://www.w3.org/2000/svg"
 width="400.000000pt" height="100.000000pt" viewBox="0 0 400.000000 100.000000"
 preserveAspectRatio="xMidYMid meet">

<g transform="translate(0.000000,100.000000) scale(0.100000,-0.100000)"
fill="#000000" stroke="none">
<path d="M3260 715 c0 -32 47 -65 90 -65 59 0 117 63 72 78 -6 2 -19 -6 -29
-17 -22 -26 -34 -26 -83 -1 -47 24 -50 24 -50 5z"/>
<path d="M1006 619 c-48 -11 -73 -32 -92 -78 -29 -68 -15 -158 31 -207 32 -34
33 -34 118 -34 47 0 98 5 112 12 42 19 68 72 69 142 1 75 -17 120 -58 145 -38
23 -127 33 -180 20z m165 -78 c14 -17 19 -40 19 -83 0 -50 -4 -63 -26 -85 -23
-23 -31 -25 -96 -21 -89 5 -108 23 -108 105 0 94 24 115 129 110 52 -3 67 -7
82 -26z"/>
<path d="M3365 514 c-63 -66 -115 -114 -116 -109 -3 27 -5 77 -7 143 -2 70 -3
72 -27 72 l-25 0 0 -152 c0 -84 4 -159 8 -166 12 -17 64 24 157 126 42 45 83
82 90 82 10 0 13 -24 13 -102 -1 -102 -1 -103 23 -103 l24 0 3 151 c4 210 4
210 -143 58z"/>
<path d="M123 610 c-35 -14 -43 -43 -43 -159 l0 -111 33 -20 c27 -17 50 -20
140 -20 l107 0 0 30 0 30 -115 0 -115 0 0 94 c0 65 4 97 13 103 6 4 58 6 114
4 95 -3 101 -2 108 18 3 11 3 25 0 31 -8 12 -211 12 -242 0z"/>
<path d="M530 602 c-55 -27 -70 -68 -70 -195 l0 -108 27 3 27 3 2 110 c3 137
9 145 118 145 106 0 110 -4 116 -142 5 -108 6 -113 28 -116 22 -3 22 -2 22
113 0 132 -11 164 -66 190 -45 21 -159 20 -204 -3z"/>
<path d="M1388 609 c-15 -6 -29 -18 -32 -27 -2 -9 -6 -75 -8 -147 l-3 -130 27
-3 27 -3 3 128 3 128 95 0 95 0 3 -43 c5 -62 -8 -72 -88 -72 -71 0 -98 -14
-86 -45 4 -11 22 -15 74 -15 123 0 162 29 162 120 0 64 -12 88 -55 106 -39 16
-175 18 -217 3z"/>
<path d="M1745 610 c-3 -6 -3 -19 0 -30 5 -17 15 -20 66 -20 l59 0 2 -102 c1
-57 2 -114 3 -128 0 -19 7 -26 28 -28 l27 -3 0 130 0 130 63 3 c59 3 62 4 65
31 l3 27 -155 0 c-93 0 -157 -4 -161 -10z"/>
<path d="M2430 598 c-65 -33 -80 -69 -80 -195 l0 -103 25 0 c25 0 25 2 25 78
0 151 24 182 140 182 l70 0 0 -131 0 -130 28 3 27 3 0 140 c0 77 -3 148 -7
158 -6 14 -21 17 -96 17 -71 0 -96 -4 -132 -22z"/>
<path d="M2851 603 c-67 -35 -90 -92 -91 -225 l0 -78 30 0 c28 0 30 2 30 40
l0 40 105 0 105 0 0 -40 c0 -36 2 -40 25 -40 l26 0 -3 158 -3 157 -95 3 c-75
2 -102 -1 -129 -15z m177 -100 l-3 -58 -104 -3 -104 -3 6 38 c10 62 43 83 133
83 l75 0 -3 -57z"/>
<path d="M3620 460 l0 -160 25 0 c23 0 25 3 25 49 0 82 -1 81 111 81 l99 0 0
-65 0 -65 30 0 30 0 0 160 0 160 -30 0 -30 0 0 -65 0 -65 -99 0 c-112 0 -111
-1 -111 81 0 46 -2 49 -25 49 l-25 0 0 -160z"/>
</g>
</svg>
