<?xml version="1.0" standalone="no"?>
<!DOCTYPE svg PUBLIC "-//W3C//DTD SVG 20010904//EN"
 "http://www.w3.org/TR/2001/REC-SVG-20010904/DTD/svg10.dtd">
<svg version="1.0" xmlns="http://www.w3.org/2000/svg"
 width="920.000000pt" height="981.000000pt" viewBox="0 0 920.000000 981.000000"
 preserveAspectRatio="xMidYMid meet">

<g transform="translate(0.000000,981.000000) scale(0.100000,-0.100000)"
fill="#000000" stroke="none">
<path d="M2066 9785 c-49 -17 -93 -59 -117 -110 -18 -39 -19 -120 -19 -2257
l0 -2218 -797 0 c-487 0 -812 -4 -833 -10 -49 -13 -109 -66 -131 -114 -17 -38
-19 -78 -19 -620 0 -564 1 -581 21 -622 22 -47 66 -84 118 -102 25 -9 252 -12
837 -12 l804 0 0 -410 0 -409 -812 -3 c-810 -3 -813 -3 -853 -25 -50 -27 -80
-58 -100 -105 -13 -32 -15 -109 -15 -543 0 -478 1 -508 19 -543 11 -20 32 -49
48 -64 63 -60 27 -58 908 -58 l805 0 0 -698 0 -698 23 -44 c27 -53 81 -98 133
-111 58 -13 1235 -12 1288 2 54 13 110 59 136 110 19 37 20 61 20 739 l0 700
1778 0 c1222 0 1789 3 1815 11 21 6 56 26 77 45 72 65 71 57 68 631 l-3 511
-30 43 c-18 26 -50 53 -80 68 l-49 26 -1788 3 -1788 2 2 408 3 407 1365 6
c969 4 1390 9 1450 18 487 67 773 151 1120 327 262 132 489 295 704 504 165
160 274 290 391 465 246 368 392 762 461 1247 25 180 30 644 9 848 -79 780
-392 1404 -954 1907 -499 446 -1125 697 -1876 753 -90 6 -848 10 -2120 10
-1655 -1 -1986 -3 -2019 -15z m3884 -1475 c415 -36 735 -172 998 -425 134
-128 218 -241 292 -390 99 -199 145 -375 159 -609 37 -617 -188 -1105 -652
-1417 -210 -141 -470 -229 -766 -259 -65 -6 -531 -10 -1277 -10 l-1174 0 0
1560 0 1560 1153 0 c677 0 1199 -4 1267 -10z"/>
</g>
</svg>
